<?xml version="1.0" encoding="UTF-8" standalone="no"?>
<!DOCTYPE svg PUBLIC "-//W3C//DTD SVG 1.1//EN"
 "http://www.w3.org/Graphics/SVG/1.1/DTD/svg11.dtd">
<!-- Generated by graphviz version 2.44.0 (20200408.0750)
 -->
<!-- Title: dependency&#45;cruiser output Pages: 1 -->
<svg width="324pt" height="400pt"
 viewBox="0.00 0.00 323.51 400.00" xmlns="http://www.w3.org/2000/svg" xmlns:xlink="http://www.w3.org/1999/xlink">
<g id="graph0" class="graph" transform="scale(1 1) rotate(0) translate(4 396)">
<title>dependency&#45;cruiser output</title>
<polygon fill="white" stroke="transparent" points="-4,4 -4,-396 319.51,-396 319.51,4 -4,4"/>
<g id="clust1" class="cluster">
<title>cluster_src</title>
<path fill="#ffffff" stroke="black" stroke-width="2" d="M20,-8C20,-8 295.51,-8 295.51,-8 301.51,-8 307.51,-14 307.51,-20 307.51,-20 307.51,-372 307.51,-372 307.51,-378 301.51,-384 295.51,-384 295.51,-384 20,-384 20,-384 14,-384 8,-378 8,-372 8,-372 8,-20 8,-20 8,-14 14,-8 20,-8"/>
<text text-anchor="middle" x="157.76" y="-371.9" font-family="Helvetica,sans-Serif" font-weight="bold" font-size="9.00">src</text>
</g>
<g id="clust2" class="cluster">
<title>cluster_src/deep&#45;flat</title>
<path fill="#ffffff" stroke="black" stroke-width="2" d="M40.24,-269C40.24,-269 275.27,-269 275.27,-269 281.27,-269 287.27,-275 287.27,-281 287.27,-281 287.27,-345 287.27,-345 287.27,-351 281.27,-357 275.27,-357 275.27,-357 40.24,-357 40.24,-357 34.24,-357 28.24,-351 28.24,-345 28.24,-345 28.24,-281 28.24,-281 28.24,-275 34.24,-269 40.24,-269"/>
<text text-anchor="middle" x="157.76" y="-344.9" font-family="Helvetica,sans-Serif" font-weight="bold" font-size="9.00">deep&#45;flat</text>
</g>
<g id="clust3" class="cluster">
<title>cluster_src/deep&#45;flat/deepflat&#45;daniel</title>
<path fill="#ffffff" stroke="black" stroke-width="2" d="M48.24,-277C48.24,-277 267.27,-277 267.27,-277 273.27,-277 279.27,-283 279.27,-289 279.27,-289 279.27,-318 279.27,-318 279.27,-324 273.27,-330 267.27,-330 267.27,-330 48.24,-330 48.24,-330 42.24,-330 36.24,-324 36.24,-318 36.24,-318 36.24,-289 36.24,-289 36.24,-283 42.24,-277 48.24,-277"/>
<text text-anchor="middle" x="157.76" y="-317.9" font-family="Helvetica,sans-Serif" font-weight="bold" font-size="9.00">deepflat&#45;daniel</text>
</g>
<g id="clust4" class="cluster">
<title>cluster_src/intersection</title>
<path fill="#ffffff" stroke="black" stroke-width="2" d="M31.5,-173C31.5,-173 284.02,-173 284.02,-173 290.02,-173 296.02,-179 296.02,-185 296.02,-185 296.02,-249 296.02,-249 296.02,-255 290.02,-261 284.02,-261 284.02,-261 31.5,-261 31.5,-261 25.5,-261 19.5,-255 19.5,-249 19.5,-249 19.5,-185 19.5,-185 19.5,-179 25.5,-173 31.5,-173"/>
<text text-anchor="middle" x="157.76" y="-248.9" font-family="Helvetica,sans-Serif" font-weight="bold" font-size="9.00">intersection</text>
</g>
<g id="clust5" class="cluster">
<title>cluster_src/intersection/for&#45;loops&#45;rayane</title>
<path fill="#ffffff" stroke="black" stroke-width="2" d="M39.5,-181C39.5,-181 276.02,-181 276.02,-181 282.02,-181 288.02,-187 288.02,-193 288.02,-193 288.02,-222 288.02,-222 288.02,-228 282.02,-234 276.02,-234 276.02,-234 39.5,-234 39.5,-234 33.5,-234 27.5,-228 27.5,-222 27.5,-222 27.5,-193 27.5,-193 27.5,-187 33.5,-181 39.5,-181"/>
<text text-anchor="middle" x="157.76" y="-221.9" font-family="Helvetica,sans-Serif" font-weight="bold" font-size="9.00">for&#45;loops&#45;rayane</text>
</g>
<g id="clust6" class="cluster">
<title>cluster_src/sort&#45;numbers</title>
<path fill="#ffffff" stroke="black" stroke-width="2" d="M28,-16C28,-16 287.51,-16 287.51,-16 293.51,-16 299.51,-22 299.51,-28 299.51,-28 299.51,-153 299.51,-153 299.51,-159 293.51,-165 287.51,-165 287.51,-165 28,-165 28,-165 22,-165 16,-159 16,-153 16,-153 16,-28 16,-28 16,-22 22,-16 28,-16"/>
<text text-anchor="middle" x="157.76" y="-152.9" font-family="Helvetica,sans-Serif" font-weight="bold" font-size="9.00">sort&#45;numbers</text>
</g>
<g id="clust7" class="cluster">
<title>cluster_src/sort&#45;numbers/built&#45;in&#45;sort&#45;rayane</title>
<path fill="#ffffff" stroke="black" stroke-width="2" d="M36,-85C36,-85 279.51,-85 279.51,-85 285.51,-85 291.51,-91 291.51,-97 291.51,-97 291.51,-126 291.51,-126 291.51,-132 285.51,-138 279.51,-138 279.51,-138 36,-138 36,-138 30,-138 24,-132 24,-126 24,-126 24,-97 24,-97 24,-91 30,-85 36,-85"/>
<text text-anchor="middle" x="157.76" y="-125.9" font-family="Helvetica,sans-Serif" font-weight="bold" font-size="9.00">built&#45;in&#45;sort&#45;rayane</text>
</g>
<g id="clust8" class="cluster">
<title>cluster_src/sort&#45;numbers/example&#45;built&#45;in&#45;sort</title>
<path fill="#ffffff" stroke="black" stroke-width="2" d="M51.25,-24C51.25,-24 264.26,-24 264.26,-24 270.26,-24 276.26,-30 276.26,-36 276.26,-36 276.26,-65 276.26,-65 276.26,-71 270.26,-77 264.26,-77 264.26,-77 51.25,-77 51.25,-77 45.25,-77 39.25,-71 39.25,-65 39.25,-65 39.25,-36 39.25,-36 39.25,-30 45.25,-24 51.25,-24"/>
<text text-anchor="middle" x="157.76" y="-64.9" font-family="Helvetica,sans-Serif" font-weight="bold" font-size="9.00">example&#45;built&#45;in&#45;sort</text>
</g>
<!-- src/deep&#45;flat/deepflat&#45;daniel/deepflat&#45;daniel.js -->
<g id="node1" class="node">
<title>src/deep&#45;flat/deepflat&#45;daniel/deepflat&#45;daniel.js</title>
<g id="a_node1"><a xlink:href="../src/deep-flat/deepflat-daniel/deepflat-daniel.js" xlink:title="deepflat&#45;daniel.js">
<path fill="#ffffcc" stroke="black" d="M265.08,-303.3C265.08,-303.3 193.45,-303.3 193.45,-303.3 190.35,-303.3 187.25,-300.2 187.25,-297.1 187.25,-297.1 187.25,-290.9 187.25,-290.9 187.25,-287.8 190.35,-284.7 193.45,-284.7 193.45,-284.7 265.08,-284.7 265.08,-284.7 268.18,-284.7 271.28,-287.8 271.28,-290.9 271.28,-290.9 271.28,-297.1 271.28,-297.1 271.28,-300.2 268.18,-303.3 265.08,-303.3"/>
<text text-anchor="middle" x="229.26" y="-291.3" font-family="Helvetica,sans-Serif" font-size="9.00">deepflat&#45;daniel.js</text>
</a>
</g>
</g>
<!-- src/deep&#45;flat/deepflat&#45;daniel/deepflat&#45;daniel.spec.js -->
<g id="node2" class="node">
<title>src/deep&#45;flat/deepflat&#45;daniel/deepflat&#45;daniel.spec.js</title>
<g id="a_node2"><a xlink:href="../src/deep-flat/deepflat-daniel/deepflat-daniel.spec.js" xlink:title="deepflat&#45;daniel.spec.js">
<path fill="#ffffcc" stroke="black" d="M143.33,-303.3C143.33,-303.3 50.68,-303.3 50.68,-303.3 47.58,-303.3 44.48,-300.2 44.48,-297.1 44.48,-297.1 44.48,-290.9 44.48,-290.9 44.48,-287.8 47.58,-284.7 50.68,-284.7 50.68,-284.7 143.33,-284.7 143.33,-284.7 146.43,-284.7 149.53,-287.8 149.53,-290.9 149.53,-290.9 149.53,-297.1 149.53,-297.1 149.53,-300.2 146.43,-303.3 143.33,-303.3"/>
<text text-anchor="middle" x="97.01" y="-291.3" font-family="Helvetica,sans-Serif" font-size="9.00">deepflat&#45;daniel.spec.js</text>
</a>
</g>
</g>
<!-- src/deep&#45;flat/deepflat&#45;daniel/deepflat&#45;daniel.spec.js&#45;&gt;src/deep&#45;flat/deepflat&#45;daniel/deepflat&#45;daniel.js -->
<g id="edge1" class="edge">
<title>src/deep&#45;flat/deepflat&#45;daniel/deepflat&#45;daniel.spec.js&#45;&gt;src/deep&#45;flat/deepflat&#45;daniel/deepflat&#45;daniel.js</title>
<path fill="none" stroke="#000000" stroke-width="2" stroke-opacity="0.200000" d="M149.86,-294C160.08,-294 170.76,-294 180.83,-294"/>
<polygon fill="#000000" fill-opacity="0.200000" stroke="#000000" stroke-width="2" stroke-opacity="0.200000" points="181.01,-296.1 187.01,-294 181.01,-291.9 181.01,-296.1"/>
</g>
<!-- src/intersection/for&#45;loops&#45;rayane/intersection&#45;rayane.js -->
<g id="node3" class="node">
<title>src/intersection/for&#45;loops&#45;rayane/intersection&#45;rayane.js</title>
<g id="a_node3"><a xlink:href="../src/intersection/for-loops-rayane/intersection-rayane.js" xlink:title="intersection&#45;rayane.js">
<path fill="#ffffcc" stroke="black" d="M273.57,-207.3C273.57,-207.3 184.95,-207.3 184.95,-207.3 181.85,-207.3 178.75,-204.2 178.75,-201.1 178.75,-201.1 178.75,-194.9 178.75,-194.9 178.75,-191.8 181.85,-188.7 184.95,-188.7 184.95,-188.7 273.57,-188.7 273.57,-188.7 276.67,-188.7 279.77,-191.8 279.77,-194.9 279.77,-194.9 279.77,-201.1 279.77,-201.1 279.77,-204.2 276.67,-207.3 273.57,-207.3"/>
<text text-anchor="middle" x="229.26" y="-195.3" font-family="Helvetica,sans-Serif" font-size="9.00">intersection&#45;rayane.js</text>
</a>
</g>
</g>
<!-- src/intersection/for&#45;loops&#45;rayane/intersection&#45;rayane.spec.js -->
<g id="node4" class="node">
<title>src/intersection/for&#45;loops&#45;rayane/intersection&#45;rayane.spec.js</title>
<g id="a_node4"><a xlink:href="../src/intersection/for-loops-rayane/intersection-rayane.spec.js" xlink:title="intersection&#45;rayane.spec.js">
<path fill="#ffffcc" stroke="black" d="M152.32,-207.3C152.32,-207.3 41.69,-207.3 41.69,-207.3 38.59,-207.3 35.49,-204.2 35.49,-201.1 35.49,-201.1 35.49,-194.9 35.49,-194.9 35.49,-191.8 38.59,-188.7 41.69,-188.7 41.69,-188.7 152.32,-188.7 152.32,-188.7 155.42,-188.7 158.52,-191.8 158.52,-194.9 158.52,-194.9 158.52,-201.1 158.52,-201.1 158.52,-204.2 155.42,-207.3 152.32,-207.3"/>
<text text-anchor="middle" x="97.01" y="-195.3" font-family="Helvetica,sans-Serif" font-size="9.00">intersection&#45;rayane.spec.js</text>
</a>
</g>
</g>
<!-- src/intersection/for&#45;loops&#45;rayane/intersection&#45;rayane.spec.js&#45;&gt;src/intersection/for&#45;loops&#45;rayane/intersection&#45;rayane.js -->
<g id="edge2" class="edge">
<title>src/intersection/for&#45;loops&#45;rayane/intersection&#45;rayane.spec.js&#45;&gt;src/intersection/for&#45;loops&#45;rayane/intersection&#45;rayane.js</title>
<path fill="none" stroke="#000000" stroke-width="2" stroke-opacity="0.200000" d="M158.56,-198C163.13,-198 167.72,-198 172.26,-198"/>
<polygon fill="#000000" fill-opacity="0.200000" stroke="#000000" stroke-width="2" stroke-opacity="0.200000" points="172.4,-200.1 178.4,-198 172.4,-195.9 172.4,-200.1"/>
</g>
<!-- src/sort&#45;numbers/built&#45;in&#45;sort&#45;rayane/sort&#45;numbers&#45;rayane.js -->
<g id="node5" class="node">
<title>src/sort&#45;numbers/built&#45;in&#45;sort&#45;rayane/sort&#45;numbers&#45;rayane.js</title>
<g id="a_node5"><a xlink:href="../src/sort-numbers/built-in-sort-rayane/sort-numbers-rayane.js" xlink:title="sort&#45;numbers&#45;rayane.js">
<path fill="#ffffcc" stroke="black" d="M277.07,-111.3C277.07,-111.3 181.46,-111.3 181.46,-111.3 178.36,-111.3 175.26,-108.2 175.26,-105.1 175.26,-105.1 175.26,-98.9 175.26,-98.9 175.26,-95.8 178.36,-92.7 181.46,-92.7 181.46,-92.7 277.07,-92.7 277.07,-92.7 280.17,-92.7 283.27,-95.8 283.27,-98.9 283.27,-98.9 283.27,-105.1 283.27,-105.1 283.27,-108.2 280.17,-111.3 277.07,-111.3"/>
<text text-anchor="middle" x="229.26" y="-99.3" font-family="Helvetica,sans-Serif" font-size="9.00">sort&#45;numbers&#45;rayane.js</text>
</a>
</g>
</g>
<!-- src/sort&#45;numbers/built&#45;in&#45;sort&#45;rayane/sort&#45;numbers&#45;rayane.spec.js -->
<g id="node6" class="node">
<title>src/sort&#45;numbers/built&#45;in&#45;sort&#45;rayane/sort&#45;numbers&#45;rayane.spec.js</title>
<g id="a_node6"><a xlink:href="../src/sort-numbers/built-in-sort-rayane/sort-numbers-rayane.spec.js" xlink:title="sort&#45;numbers&#45;rayane.spec.js">
<path fill="#ffffcc" stroke="black" d="M155.82,-111.3C155.82,-111.3 38.2,-111.3 38.2,-111.3 35.09,-111.3 31.99,-108.2 31.99,-105.1 31.99,-105.1 31.99,-98.9 31.99,-98.9 31.99,-95.8 35.09,-92.7 38.2,-92.7 38.2,-92.7 155.82,-92.7 155.82,-92.7 158.92,-92.7 162.02,-95.8 162.02,-98.9 162.02,-98.9 162.02,-105.1 162.02,-105.1 162.02,-108.2 158.92,-111.3 155.82,-111.3"/>
<text text-anchor="middle" x="97.01" y="-99.3" font-family="Helvetica,sans-Serif" font-size="9.00">sort&#45;numbers&#45;rayane.spec.js</text>
</a>
</g>
</g>
<!-- src/sort&#45;numbers/built&#45;in&#45;sort&#45;rayane/sort&#45;numbers&#45;rayane.spec.js&#45;&gt;src/sort&#45;numbers/built&#45;in&#45;sort&#45;rayane/sort&#45;numbers&#45;rayane.js -->
<g id="edge3" class="edge">
<title>src/sort&#45;numbers/built&#45;in&#45;sort&#45;rayane/sort&#45;numbers&#45;rayane.spec.js&#45;&gt;src/sort&#45;numbers/built&#45;in&#45;sort&#45;rayane/sort&#45;numbers&#45;rayane.js</title>
<path fill="none" stroke="#000000" stroke-width="2" stroke-opacity="0.200000" d="M162.37,-102C164.49,-102 166.6,-102 168.71,-102"/>
<polygon fill="#000000" fill-opacity="0.200000" stroke="#000000" stroke-width="2" stroke-opacity="0.200000" points="169,-104.1 175,-102 169,-99.9 169,-104.1"/>
</g>
<!-- src/sort&#45;numbers/example&#45;built&#45;in&#45;sort/sort&#45;numbers.js -->
<g id="node7" class="node">
<title>src/sort&#45;numbers/example&#45;built&#45;in&#45;sort/sort&#45;numbers.js</title>
<g id="a_node7"><a xlink:href="../src/sort-numbers/example-built-in-sort/sort-numbers.js" xlink:title="sort&#45;numbers.js">
<path fill="#ffffcc" stroke="black" d="M262.06,-50.3C262.06,-50.3 196.46,-50.3 196.46,-50.3 193.36,-50.3 190.26,-47.2 190.26,-44.1 190.26,-44.1 190.26,-37.9 190.26,-37.9 190.26,-34.8 193.36,-31.7 196.46,-31.7 196.46,-31.7 262.06,-31.7 262.06,-31.7 265.16,-31.7 268.26,-34.8 268.26,-37.9 268.26,-37.9 268.26,-44.1 268.26,-44.1 268.26,-47.2 265.16,-50.3 262.06,-50.3"/>
<text text-anchor="middle" x="229.26" y="-38.3" font-family="Helvetica,sans-Serif" font-size="9.00">sort&#45;numbers.js</text>
</a>
</g>
</g>
<!-- src/sort&#45;numbers/example&#45;built&#45;in&#45;sort/sort&#45;numbers.spec.js -->
<g id="node8" class="node">
<title>src/sort&#45;numbers/example&#45;built&#45;in&#45;sort/sort&#45;numbers.spec.js</title>
<g id="a_node8"><a xlink:href="../src/sort-numbers/example-built-in-sort/sort-numbers.spec.js" xlink:title="sort&#45;numbers.spec.js">
<path fill="#ffffcc" stroke="black" d="M140.31,-50.3C140.31,-50.3 53.7,-50.3 53.7,-50.3 50.6,-50.3 47.5,-47.2 47.5,-44.1 47.5,-44.1 47.5,-37.9 47.5,-37.9 47.5,-34.8 50.6,-31.7 53.7,-31.7 53.7,-31.7 140.31,-31.7 140.31,-31.7 143.41,-31.7 146.51,-34.8 146.51,-37.9 146.51,-37.9 146.51,-44.1 146.51,-44.1 146.51,-47.2 143.41,-50.3 140.31,-50.3"/>
<text text-anchor="middle" x="97.01" y="-38.3" font-family="Helvetica,sans-Serif" font-size="9.00">sort&#45;numbers.spec.js</text>
</a>
</g>
</g>
<!-- src/sort&#45;numbers/example&#45;built&#45;in&#45;sort/sort&#45;numbers.spec.js&#45;&gt;src/sort&#45;numbers/example&#45;built&#45;in&#45;sort/sort&#45;numbers.js -->
<g id="edge4" class="edge">
<title>src/sort&#45;numbers/example&#45;built&#45;in&#45;sort/sort&#45;numbers.spec.js&#45;&gt;src/sort&#45;numbers/example&#45;built&#45;in&#45;sort/sort&#45;numbers.js</title>
<path fill="none" stroke="#000000" stroke-width="2" stroke-opacity="0.200000" d="M146.88,-41C159.05,-41 172.03,-41 183.97,-41"/>
<polygon fill="#000000" fill-opacity="0.200000" stroke="#000000" stroke-width="2" stroke-opacity="0.200000" points="184.11,-43.1 190.11,-41 184.11,-38.9 184.11,-43.1"/>
</g>
</g>
</svg>
