<?xml version="1.0" encoding="UTF-8" standalone="no"?>
<!DOCTYPE svg PUBLIC "-//W3C//DTD SVG 1.1//EN"
 "http://www.w3.org/Graphics/SVG/1.1/DTD/svg11.dtd">
<!-- Generated by graphviz version 2.44.0 (20200408.0750)
 -->
<!-- Title: dependency&#45;cruiser output Pages: 1 -->
<svg width="313pt" height="243pt"
 viewBox="0.00 0.00 312.51 243.00" xmlns="http://www.w3.org/2000/svg" xmlns:xlink="http://www.w3.org/1999/xlink">
<g id="graph0" class="graph" transform="scale(1 1) rotate(0) translate(4 239)">
<title>dependency&#45;cruiser output</title>
<polygon fill="white" stroke="transparent" points="-4,4 -4,-239 308.51,-239 308.51,4 -4,4"/>
<g id="clust1" class="cluster">
<title>cluster_src</title>
<path fill="#ffffff" stroke="black" stroke-width="2" d="M20,-8C20,-8 284.51,-8 284.51,-8 290.51,-8 296.51,-14 296.51,-20 296.51,-20 296.51,-215 296.51,-215 296.51,-221 290.51,-227 284.51,-227 284.51,-227 20,-227 20,-227 14,-227 8,-221 8,-215 8,-215 8,-20 8,-20 8,-14 14,-8 20,-8"/>
<text text-anchor="middle" x="152.26" y="-214.9" font-family="Helvetica,sans-Serif" font-weight="bold" font-size="9.00">src</text>
</g>
<g id="clust2" class="cluster">
<title>cluster_src/sort&#45;numbers</title>
<path fill="#ffffff" stroke="black" stroke-width="2" d="M40.5,-112C40.5,-112 264.01,-112 264.01,-112 270.01,-112 276.01,-118 276.01,-124 276.01,-124 276.01,-188 276.01,-188 276.01,-194 270.01,-200 264.01,-200 264.01,-200 40.5,-200 40.5,-200 34.5,-200 28.5,-194 28.5,-188 28.5,-188 28.5,-124 28.5,-124 28.5,-118 34.5,-112 40.5,-112"/>
<text text-anchor="middle" x="152.26" y="-187.9" font-family="Helvetica,sans-Serif" font-weight="bold" font-size="9.00">sort&#45;numbers</text>
</g>
<g id="clust3" class="cluster">
<title>cluster_src/sort&#45;numbers/example&#45;built&#45;in&#45;sort</title>
<path fill="#ffffff" stroke="black" stroke-width="2" d="M48.5,-120C48.5,-120 256.01,-120 256.01,-120 262.01,-120 268.01,-126 268.01,-132 268.01,-132 268.01,-161 268.01,-161 268.01,-167 262.01,-173 256.01,-173 256.01,-173 48.5,-173 48.5,-173 42.5,-173 36.5,-167 36.5,-161 36.5,-161 36.5,-132 36.5,-132 36.5,-126 42.5,-120 48.5,-120"/>
<text text-anchor="middle" x="152.26" y="-160.9" font-family="Helvetica,sans-Serif" font-weight="bold" font-size="9.00">example&#45;built&#45;in&#45;sort</text>
</g>
<g id="clust4" class="cluster">
<title>cluster_src/split&#45;object</title>
<path fill="#ffffff" stroke="black" stroke-width="2" d="M28,-16C28,-16 276.51,-16 276.51,-16 282.51,-16 288.51,-22 288.51,-28 288.51,-28 288.51,-92 288.51,-92 288.51,-98 282.51,-104 276.51,-104 276.51,-104 28,-104 28,-104 22,-104 16,-98 16,-92 16,-92 16,-28 16,-28 16,-22 22,-16 28,-16"/>
<text text-anchor="middle" x="152.26" y="-91.9" font-family="Helvetica,sans-Serif" font-weight="bold" font-size="9.00">split&#45;object</text>
</g>
<g id="clust5" class="cluster">
<title>cluster_src/split&#45;object/split&#45;object&#45;reinaldo</title>
<path fill="#ffffff" stroke="black" stroke-width="2" d="M36,-24C36,-24 268.51,-24 268.51,-24 274.51,-24 280.51,-30 280.51,-36 280.51,-36 280.51,-65 280.51,-65 280.51,-71 274.51,-77 268.51,-77 268.51,-77 36,-77 36,-77 30,-77 24,-71 24,-65 24,-65 24,-36 24,-36 24,-30 30,-24 36,-24"/>
<text text-anchor="middle" x="152.26" y="-64.9" font-family="Helvetica,sans-Serif" font-weight="bold" font-size="9.00">split&#45;object&#45;reinaldo</text>
</g>
<!-- src/sort&#45;numbers/example&#45;built&#45;in&#45;sort/sort&#45;numbers.js -->
<g id="node1" class="node">
<title>src/sort&#45;numbers/example&#45;built&#45;in&#45;sort/sort&#45;numbers.js</title>
<g id="a_node1"><a xlink:href="../src/sort-numbers/example-built-in-sort/sort-numbers.js" xlink:title="sort&#45;numbers.js">
<path fill="#ffffcc" stroke="black" d="M253.81,-146.3C253.81,-146.3 188.21,-146.3 188.21,-146.3 185.11,-146.3 182.01,-143.2 182.01,-140.1 182.01,-140.1 182.01,-133.9 182.01,-133.9 182.01,-130.8 185.11,-127.7 188.21,-127.7 188.21,-127.7 253.81,-127.7 253.81,-127.7 256.91,-127.7 260.01,-130.8 260.01,-133.9 260.01,-133.9 260.01,-140.1 260.01,-140.1 260.01,-143.2 256.91,-146.3 253.81,-146.3"/>
<text text-anchor="middle" x="221.01" y="-134.3" font-family="Helvetica,sans-Serif" font-size="9.00">sort&#45;numbers.js</text>
</a>
</g>
</g>
<!-- src/sort&#45;numbers/example&#45;built&#45;in&#45;sort/sort&#45;numbers.spec.js -->
<g id="node2" class="node">
<title>src/sort&#45;numbers/example&#45;built&#45;in&#45;sort/sort&#45;numbers.spec.js</title>
<g id="a_node2"><a xlink:href="../src/sort-numbers/example-built-in-sort/sort-numbers.spec.js" xlink:title="sort&#45;numbers.spec.js">
<path fill="#ffffcc" stroke="black" d="M137.56,-146.3C137.56,-146.3 50.95,-146.3 50.95,-146.3 47.85,-146.3 44.75,-143.2 44.75,-140.1 44.75,-140.1 44.75,-133.9 44.75,-133.9 44.75,-130.8 47.85,-127.7 50.95,-127.7 50.95,-127.7 137.56,-127.7 137.56,-127.7 140.66,-127.7 143.76,-130.8 143.76,-133.9 143.76,-133.9 143.76,-140.1 143.76,-140.1 143.76,-143.2 140.66,-146.3 137.56,-146.3"/>
<text text-anchor="middle" x="94.25" y="-134.3" font-family="Helvetica,sans-Serif" font-size="9.00">sort&#45;numbers.spec.js</text>
</a>
</g>
</g>
<!-- src/sort&#45;numbers/example&#45;built&#45;in&#45;sort/sort&#45;numbers.spec.js&#45;&gt;src/sort&#45;numbers/example&#45;built&#45;in&#45;sort/sort&#45;numbers.js -->
<g id="edge1" class="edge">
<title>src/sort&#45;numbers/example&#45;built&#45;in&#45;sort/sort&#45;numbers.spec.js&#45;&gt;src/sort&#45;numbers/example&#45;built&#45;in&#45;sort/sort&#45;numbers.js</title>
<path fill="none" stroke="#000000" stroke-width="2" stroke-opacity="0.200000" d="M143.85,-137C154.27,-137 165.24,-137 175.5,-137"/>
<polygon fill="#000000" fill-opacity="0.200000" stroke="#000000" stroke-width="2" stroke-opacity="0.200000" points="175.78,-139.1 181.78,-137 175.78,-134.9 175.78,-139.1"/>
</g>
<!-- src/split&#45;object/split&#45;object&#45;reinaldo/split&#45;object&#45;reinaldo.js -->
<g id="node3" class="node">
<title>src/split&#45;object/split&#45;object&#45;reinaldo/split&#45;object&#45;reinaldo.js</title>
<g id="a_node3"><a xlink:href="../src/split-object/split-object-reinaldo/split-object-reinaldo.js" xlink:title="split&#45;object&#45;reinaldo.js">
<path fill="#ffffcc" stroke="black" d="M266.31,-50.3C266.31,-50.3 175.71,-50.3 175.71,-50.3 172.61,-50.3 169.51,-47.2 169.51,-44.1 169.51,-44.1 169.51,-37.9 169.51,-37.9 169.51,-34.8 172.61,-31.7 175.71,-31.7 175.71,-31.7 266.31,-31.7 266.31,-31.7 269.41,-31.7 272.51,-34.8 272.51,-37.9 272.51,-37.9 272.51,-44.1 272.51,-44.1 272.51,-47.2 269.41,-50.3 266.31,-50.3"/>
<text text-anchor="middle" x="221.01" y="-38.3" font-family="Helvetica,sans-Serif" font-size="9.00">split&#45;object&#45;reinaldo.js</text>
</a>
</g>
</g>
<!-- src/split&#45;object/split&#45;object&#45;reinaldo/split&#45;object&#45;reinaldo.spec.js -->
<g id="node4" class="node">
<title>src/split&#45;object/split&#45;object&#45;reinaldo/split&#45;object&#45;reinaldo.spec.js</title>
<g id="a_node4"><a xlink:href="../src/split-object/split-object-reinaldo/split-object-reinaldo.spec.js" xlink:title="split&#45;object&#45;reinaldo.spec.js">
<path fill="#ffffcc" stroke="black" d="M150.06,-50.3C150.06,-50.3 38.45,-50.3 38.45,-50.3 35.34,-50.3 32.24,-47.2 32.24,-44.1 32.24,-44.1 32.24,-37.9 32.24,-37.9 32.24,-34.8 35.34,-31.7 38.45,-31.7 38.45,-31.7 150.06,-31.7 150.06,-31.7 153.16,-31.7 156.27,-34.8 156.27,-37.9 156.27,-37.9 156.27,-44.1 156.27,-44.1 156.27,-47.2 153.16,-50.3 150.06,-50.3"/>
<text text-anchor="middle" x="94.25" y="-38.3" font-family="Helvetica,sans-Serif" font-size="9.00">split&#45;object&#45;reinaldo.spec.js</text>
</a>
</g>
</g>
<!-- src/split&#45;object/split&#45;object&#45;reinaldo/split&#45;object&#45;reinaldo.spec.js&#45;&gt;src/split&#45;object/split&#45;object&#45;reinaldo/split&#45;object&#45;reinaldo.js -->
<g id="edge2" class="edge">
<title>src/split&#45;object/split&#45;object&#45;reinaldo/split&#45;object&#45;reinaldo.spec.js&#45;&gt;src/split&#45;object/split&#45;object&#45;reinaldo/split&#45;object&#45;reinaldo.js</title>
<path fill="none" stroke="#000000" stroke-width="2" stroke-opacity="0.200000" d="M156.54,-41C158.83,-41 161.12,-41 163.4,-41"/>
<polygon fill="#000000" fill-opacity="0.200000" stroke="#000000" stroke-width="2" stroke-opacity="0.200000" points="163.42,-43.1 169.42,-41 163.42,-38.9 163.42,-43.1"/>
</g>
</g>
</svg>
