<?xml version="1.0" encoding="UTF-8" standalone="no"?>
<!DOCTYPE svg PUBLIC "-//W3C//DTD SVG 1.1//EN"
 "http://www.w3.org/Graphics/SVG/1.1/DTD/svg11.dtd">
<!-- Generated by graphviz version 2.44.0 (20200408.0750)
 -->
<!-- Title: dependency&#45;cruiser output Pages: 1 -->
<svg width="310pt" height="339pt"
 viewBox="0.00 0.00 309.53 339.00" xmlns="http://www.w3.org/2000/svg" xmlns:xlink="http://www.w3.org/1999/xlink">
<g id="graph0" class="graph" transform="scale(1 1) rotate(0) translate(4 335)">
<title>dependency&#45;cruiser output</title>
<polygon fill="white" stroke="transparent" points="-4,4 -4,-335 305.53,-335 305.53,4 -4,4"/>
<g id="clust1" class="cluster">
<title>cluster_src</title>
<path fill="#ffffff" stroke="black" stroke-width="2" d="M20,-8C20,-8 281.53,-8 281.53,-8 287.53,-8 293.53,-14 293.53,-20 293.53,-20 293.53,-311 293.53,-311 293.53,-317 287.53,-323 281.53,-323 281.53,-323 20,-323 20,-323 14,-323 8,-317 8,-311 8,-311 8,-20 8,-20 8,-14 14,-8 20,-8"/>
<text text-anchor="middle" x="150.76" y="-310.9" font-family="Helvetica,sans-Serif" font-weight="bold" font-size="9.00">src</text>
</g>
<g id="clust2" class="cluster">
<title>cluster_src/intersection</title>
<path fill="#ffffff" stroke="black" stroke-width="2" d="M28,-208C28,-208 273.53,-208 273.53,-208 279.53,-208 285.53,-214 285.53,-220 285.53,-220 285.53,-284 285.53,-284 285.53,-290 279.53,-296 273.53,-296 273.53,-296 28,-296 28,-296 22,-296 16,-290 16,-284 16,-284 16,-220 16,-220 16,-214 22,-208 28,-208"/>
<text text-anchor="middle" x="150.76" y="-283.9" font-family="Helvetica,sans-Serif" font-weight="bold" font-size="9.00">intersection</text>
</g>
<g id="clust3" class="cluster">
<title>cluster_src/intersection/for&#45;loops&#45;rayane</title>
<path fill="#ffffff" stroke="black" stroke-width="2" d="M36,-216C36,-216 265.53,-216 265.53,-216 271.53,-216 277.53,-222 277.53,-228 277.53,-228 277.53,-257 277.53,-257 277.53,-263 271.53,-269 265.53,-269 265.53,-269 36,-269 36,-269 30,-269 24,-263 24,-257 24,-257 24,-228 24,-228 24,-222 30,-216 36,-216"/>
<text text-anchor="middle" x="150.76" y="-256.9" font-family="Helvetica,sans-Serif" font-weight="bold" font-size="9.00">for&#45;loops&#45;rayane</text>
</g>
<g id="clust4" class="cluster">
<title>cluster_src/sort&#45;numbers</title>
<path fill="#ffffff" stroke="black" stroke-width="2" d="M39.76,-112C39.76,-112 261.77,-112 261.77,-112 267.77,-112 273.77,-118 273.77,-124 273.77,-124 273.77,-188 273.77,-188 273.77,-194 267.77,-200 261.77,-200 261.77,-200 39.76,-200 39.76,-200 33.76,-200 27.76,-194 27.76,-188 27.76,-188 27.76,-124 27.76,-124 27.76,-118 33.76,-112 39.76,-112"/>
<text text-anchor="middle" x="150.76" y="-187.9" font-family="Helvetica,sans-Serif" font-weight="bold" font-size="9.00">sort&#45;numbers</text>
</g>
<g id="clust5" class="cluster">
<title>cluster_src/sort&#45;numbers/example&#45;built&#45;in&#45;sort</title>
<path fill="#ffffff" stroke="black" stroke-width="2" d="M47.76,-120C47.76,-120 253.77,-120 253.77,-120 259.77,-120 265.77,-126 265.77,-132 265.77,-132 265.77,-161 265.77,-161 265.77,-167 259.77,-173 253.77,-173 253.77,-173 47.76,-173 47.76,-173 41.76,-173 35.76,-167 35.76,-161 35.76,-161 35.76,-132 35.76,-132 35.76,-126 41.76,-120 47.76,-120"/>
<text text-anchor="middle" x="150.76" y="-160.9" font-family="Helvetica,sans-Serif" font-weight="bold" font-size="9.00">example&#45;built&#45;in&#45;sort</text>
</g>
<g id="clust6" class="cluster">
<title>cluster_src/split&#45;object</title>
<path fill="#ffffff" stroke="black" stroke-width="2" d="M31.25,-16C31.25,-16 270.27,-16 270.27,-16 276.27,-16 282.27,-22 282.27,-28 282.27,-28 282.27,-92 282.27,-92 282.27,-98 276.27,-104 270.27,-104 270.27,-104 31.25,-104 31.25,-104 25.25,-104 19.25,-98 19.25,-92 19.25,-92 19.25,-28 19.25,-28 19.25,-22 25.25,-16 31.25,-16"/>
<text text-anchor="middle" x="150.76" y="-91.9" font-family="Helvetica,sans-Serif" font-weight="bold" font-size="9.00">split&#45;object</text>
</g>
<g id="clust7" class="cluster">
<title>cluster_src/split&#45;object/split&#45;object&#45;daniel</title>
<path fill="#ffffff" stroke="black" stroke-width="2" d="M39.25,-24C39.25,-24 262.27,-24 262.27,-24 268.27,-24 274.27,-30 274.27,-36 274.27,-36 274.27,-65 274.27,-65 274.27,-71 268.27,-77 262.27,-77 262.27,-77 39.25,-77 39.25,-77 33.25,-77 27.25,-71 27.25,-65 27.25,-65 27.25,-36 27.25,-36 27.25,-30 33.25,-24 39.25,-24"/>
<text text-anchor="middle" x="150.76" y="-64.9" font-family="Helvetica,sans-Serif" font-weight="bold" font-size="9.00">split&#45;object&#45;daniel</text>
</g>
<!-- src/intersection/for&#45;loops&#45;rayane/intersection&#45;rayane.js -->
<g id="node1" class="node">
<title>src/intersection/for&#45;loops&#45;rayane/intersection&#45;rayane.js</title>
<g id="a_node1"><a xlink:href="../src/intersection/for-loops-rayane/intersection-rayane.js" xlink:title="intersection&#45;rayane.js">
<path fill="#ffffcc" stroke="black" d="M263.08,-242.3C263.08,-242.3 174.46,-242.3 174.46,-242.3 171.36,-242.3 168.26,-239.2 168.26,-236.1 168.26,-236.1 168.26,-229.9 168.26,-229.9 168.26,-226.8 171.36,-223.7 174.46,-223.7 174.46,-223.7 263.08,-223.7 263.08,-223.7 266.19,-223.7 269.29,-226.8 269.29,-229.9 269.29,-229.9 269.29,-236.1 269.29,-236.1 269.29,-239.2 266.19,-242.3 263.08,-242.3"/>
<text text-anchor="middle" x="218.77" y="-230.3" font-family="Helvetica,sans-Serif" font-size="9.00">intersection&#45;rayane.js</text>
</a>
</g>
</g>
<!-- src/intersection/for&#45;loops&#45;rayane/intersection&#45;rayane.spec.js -->
<g id="node2" class="node">
<title>src/intersection/for&#45;loops&#45;rayane/intersection&#45;rayane.spec.js</title>
<g id="a_node2"><a xlink:href="../src/intersection/for-loops-rayane/intersection-rayane.spec.js" xlink:title="intersection&#45;rayane.spec.js">
<path fill="#ffffcc" stroke="black" d="M148.83,-242.3C148.83,-242.3 38.19,-242.3 38.19,-242.3 35.09,-242.3 31.99,-239.2 31.99,-236.1 31.99,-236.1 31.99,-229.9 31.99,-229.9 31.99,-226.8 35.09,-223.7 38.19,-223.7 38.19,-223.7 148.83,-223.7 148.83,-223.7 151.93,-223.7 155.03,-226.8 155.03,-229.9 155.03,-229.9 155.03,-236.1 155.03,-236.1 155.03,-239.2 151.93,-242.3 148.83,-242.3"/>
<text text-anchor="middle" x="93.51" y="-230.3" font-family="Helvetica,sans-Serif" font-size="9.00">intersection&#45;rayane.spec.js</text>
</a>
</g>
</g>
<!-- src/intersection/for&#45;loops&#45;rayane/intersection&#45;rayane.spec.js&#45;&gt;src/intersection/for&#45;loops&#45;rayane/intersection&#45;rayane.js -->
<g id="edge1" class="edge">
<title>src/intersection/for&#45;loops&#45;rayane/intersection&#45;rayane.spec.js&#45;&gt;src/intersection/for&#45;loops&#45;rayane/intersection&#45;rayane.js</title>
<path fill="none" stroke="#000000" stroke-width="2" stroke-opacity="0.200000" d="M155.06,-233C157.39,-233 159.72,-233 162.04,-233"/>
<polygon fill="#000000" fill-opacity="0.200000" stroke="#000000" stroke-width="2" stroke-opacity="0.200000" points="162.14,-235.1 168.14,-233 162.14,-230.9 162.14,-235.1"/>
</g>
<!-- src/sort&#45;numbers/example&#45;built&#45;in&#45;sort/sort&#45;numbers.js -->
<g id="node3" class="node">
<title>src/sort&#45;numbers/example&#45;built&#45;in&#45;sort/sort&#45;numbers.js</title>
<g id="a_node3"><a xlink:href="../src/sort-numbers/example-built-in-sort/sort-numbers.js" xlink:title="sort&#45;numbers.js">
<path fill="#ffffcc" stroke="black" d="M251.57,-146.3C251.57,-146.3 185.98,-146.3 185.98,-146.3 182.87,-146.3 179.77,-143.2 179.77,-140.1 179.77,-140.1 179.77,-133.9 179.77,-133.9 179.77,-130.8 182.87,-127.7 185.98,-127.7 185.98,-127.7 251.57,-127.7 251.57,-127.7 254.67,-127.7 257.77,-130.8 257.77,-133.9 257.77,-133.9 257.77,-140.1 257.77,-140.1 257.77,-143.2 254.67,-146.3 251.57,-146.3"/>
<text text-anchor="middle" x="218.77" y="-134.3" font-family="Helvetica,sans-Serif" font-size="9.00">sort&#45;numbers.js</text>
</a>
</g>
</g>
<!-- src/sort&#45;numbers/example&#45;built&#45;in&#45;sort/sort&#45;numbers.spec.js -->
<g id="node4" class="node">
<title>src/sort&#45;numbers/example&#45;built&#45;in&#45;sort/sort&#45;numbers.spec.js</title>
<g id="a_node4"><a xlink:href="../src/sort-numbers/example-built-in-sort/sort-numbers.spec.js" xlink:title="sort&#45;numbers.spec.js">
<path fill="#ffffcc" stroke="black" d="M136.82,-146.3C136.82,-146.3 50.2,-146.3 50.2,-146.3 47.1,-146.3 44,-143.2 44,-140.1 44,-140.1 44,-133.9 44,-133.9 44,-130.8 47.1,-127.7 50.2,-127.7 50.2,-127.7 136.82,-127.7 136.82,-127.7 139.92,-127.7 143.02,-130.8 143.02,-133.9 143.02,-133.9 143.02,-140.1 143.02,-140.1 143.02,-143.2 139.92,-146.3 136.82,-146.3"/>
<text text-anchor="middle" x="93.51" y="-134.3" font-family="Helvetica,sans-Serif" font-size="9.00">sort&#45;numbers.spec.js</text>
</a>
</g>
</g>
<!-- src/sort&#45;numbers/example&#45;built&#45;in&#45;sort/sort&#45;numbers.spec.js&#45;&gt;src/sort&#45;numbers/example&#45;built&#45;in&#45;sort/sort&#45;numbers.js -->
<g id="edge2" class="edge">
<title>src/sort&#45;numbers/example&#45;built&#45;in&#45;sort/sort&#45;numbers.spec.js&#45;&gt;src/sort&#45;numbers/example&#45;built&#45;in&#45;sort/sort&#45;numbers.js</title>
<path fill="none" stroke="#000000" stroke-width="2" stroke-opacity="0.200000" d="M143.23,-137C153.26,-137 163.77,-137 173.62,-137"/>
<polygon fill="#000000" fill-opacity="0.200000" stroke="#000000" stroke-width="2" stroke-opacity="0.200000" points="173.67,-139.1 179.67,-137 173.67,-134.9 173.67,-139.1"/>
</g>
<!-- src/split&#45;object/split&#45;object&#45;daniel/split&#45;object&#45;daniel.js -->
<g id="node5" class="node">
<title>src/split&#45;object/split&#45;object&#45;daniel/split&#45;object&#45;daniel.js</title>
<g id="a_node5"><a xlink:href="../src/split-object/split-object-daniel/split-object-daniel.js" xlink:title="split&#45;object&#45;daniel.js">
<path fill="#ffffcc" stroke="black" d="M260.08,-50.3C260.08,-50.3 177.47,-50.3 177.47,-50.3 174.37,-50.3 171.27,-47.2 171.27,-44.1 171.27,-44.1 171.27,-37.9 171.27,-37.9 171.27,-34.8 174.37,-31.7 177.47,-31.7 177.47,-31.7 260.08,-31.7 260.08,-31.7 263.18,-31.7 266.28,-34.8 266.28,-37.9 266.28,-37.9 266.28,-44.1 266.28,-44.1 266.28,-47.2 263.18,-50.3 260.08,-50.3"/>
<text text-anchor="middle" x="218.77" y="-38.3" font-family="Helvetica,sans-Serif" font-size="9.00">split&#45;object&#45;daniel.js</text>
</a>
</g>
</g>
<!-- src/split&#45;object/split&#45;object&#45;daniel/split&#45;object&#45;daniel.spec.js -->
<g id="node6" class="node">
<title>src/split&#45;object/split&#45;object&#45;daniel/split&#45;object&#45;daniel.spec.js</title>
<g id="a_node6"><a xlink:href="../src/split-object/split-object-daniel/split-object-daniel.spec.js" xlink:title="split&#45;object&#45;daniel.spec.js">
<path fill="#ffffcc" stroke="black" d="M145.32,-50.3C145.32,-50.3 41.7,-50.3 41.7,-50.3 38.6,-50.3 35.5,-47.2 35.5,-44.1 35.5,-44.1 35.5,-37.9 35.5,-37.9 35.5,-34.8 38.6,-31.7 41.7,-31.7 41.7,-31.7 145.32,-31.7 145.32,-31.7 148.42,-31.7 151.52,-34.8 151.52,-37.9 151.52,-37.9 151.52,-44.1 151.52,-44.1 151.52,-47.2 148.42,-50.3 145.32,-50.3"/>
<text text-anchor="middle" x="93.51" y="-38.3" font-family="Helvetica,sans-Serif" font-size="9.00">split&#45;object&#45;daniel.spec.js</text>
</a>
</g>
</g>
<!-- src/split&#45;object/split&#45;object&#45;daniel/split&#45;object&#45;daniel.spec.js&#45;&gt;src/split&#45;object/split&#45;object&#45;daniel/split&#45;object&#45;daniel.js -->
<g id="edge3" class="edge">
<title>src/split&#45;object/split&#45;object&#45;daniel/split&#45;object&#45;daniel.spec.js&#45;&gt;src/split&#45;object/split&#45;object&#45;daniel/split&#45;object&#45;daniel.js</title>
<path fill="none" stroke="#000000" stroke-width="2" stroke-opacity="0.200000" d="M151.81,-41C156.12,-41 160.46,-41 164.74,-41"/>
<polygon fill="#000000" fill-opacity="0.200000" stroke="#000000" stroke-width="2" stroke-opacity="0.200000" points="164.96,-43.1 170.96,-41 164.96,-38.9 164.96,-43.1"/>
</g>
</g>
</svg>
