<?xml version="1.0" encoding="UTF-8" standalone="no"?>
<!DOCTYPE svg PUBLIC "-//W3C//DTD SVG 1.1//EN"
 "http://www.w3.org/Graphics/SVG/1.1/DTD/svg11.dtd">
<!-- Generated by graphviz version 2.44.0 (20200408.0750)
 -->
<!-- Title: dependency&#45;cruiser output Pages: 1 -->
<svg width="310pt" height="435pt"
 viewBox="0.00 0.00 309.53 435.00" xmlns="http://www.w3.org/2000/svg" xmlns:xlink="http://www.w3.org/1999/xlink">
<g id="graph0" class="graph" transform="scale(1 1) rotate(0) translate(4 431)">
<title>dependency&#45;cruiser output</title>
<polygon fill="white" stroke="transparent" points="-4,4 -4,-431 305.53,-431 305.53,4 -4,4"/>
<g id="clust1" class="cluster">
<title>cluster_src</title>
<path fill="#ffffff" stroke="black" stroke-width="2" d="M20,-8C20,-8 281.53,-8 281.53,-8 287.53,-8 293.53,-14 293.53,-20 293.53,-20 293.53,-407 293.53,-407 293.53,-413 287.53,-419 281.53,-419 281.53,-419 20,-419 20,-419 14,-419 8,-413 8,-407 8,-407 8,-20 8,-20 8,-14 14,-8 20,-8"/>
<text text-anchor="middle" x="150.76" y="-406.9" font-family="Helvetica,sans-Serif" font-weight="bold" font-size="9.00">src</text>
</g>
<g id="clust2" class="cluster">
<title>cluster_src/deep&#45;flat</title>
<path fill="#ffffff" stroke="black" stroke-width="2" d="M36.75,-304C36.75,-304 264.78,-304 264.78,-304 270.78,-304 276.78,-310 276.78,-316 276.78,-316 276.78,-380 276.78,-380 276.78,-386 270.78,-392 264.78,-392 264.78,-392 36.75,-392 36.75,-392 30.75,-392 24.75,-386 24.75,-380 24.75,-380 24.75,-316 24.75,-316 24.75,-310 30.75,-304 36.75,-304"/>
<text text-anchor="middle" x="150.76" y="-379.9" font-family="Helvetica,sans-Serif" font-weight="bold" font-size="9.00">deep&#45;flat</text>
</g>
<g id="clust3" class="cluster">
<title>cluster_src/deep&#45;flat/deepflat&#45;daniel</title>
<path fill="#ffffff" stroke="black" stroke-width="2" d="M44.75,-312C44.75,-312 256.78,-312 256.78,-312 262.78,-312 268.78,-318 268.78,-324 268.78,-324 268.78,-353 268.78,-353 268.78,-359 262.78,-365 256.78,-365 256.78,-365 44.75,-365 44.75,-365 38.75,-365 32.75,-359 32.75,-353 32.75,-353 32.75,-324 32.75,-324 32.75,-318 38.75,-312 44.75,-312"/>
<text text-anchor="middle" x="150.76" y="-352.9" font-family="Helvetica,sans-Serif" font-weight="bold" font-size="9.00">deepflat&#45;daniel</text>
</g>
<g id="clust4" class="cluster">
<title>cluster_src/difference</title>
<path fill="#ffffff" stroke="black" stroke-width="2" d="M46.5,-208C46.5,-208 255.03,-208 255.03,-208 261.03,-208 267.03,-214 267.03,-220 267.03,-220 267.03,-284 267.03,-284 267.03,-290 261.03,-296 255.03,-296 255.03,-296 46.5,-296 46.5,-296 40.5,-296 34.5,-290 34.5,-284 34.5,-284 34.5,-220 34.5,-220 34.5,-214 40.5,-208 46.5,-208"/>
<text text-anchor="middle" x="150.76" y="-283.9" font-family="Helvetica,sans-Serif" font-weight="bold" font-size="9.00">difference</text>
</g>
<g id="clust5" class="cluster">
<title>cluster_src/difference/solution&#45;class&#45;sunday</title>
<path fill="#ffffff" stroke="black" stroke-width="2" d="M54.5,-216C54.5,-216 247.03,-216 247.03,-216 253.03,-216 259.03,-222 259.03,-228 259.03,-228 259.03,-257 259.03,-257 259.03,-263 253.03,-269 247.03,-269 247.03,-269 54.5,-269 54.5,-269 48.5,-269 42.5,-263 42.5,-257 42.5,-257 42.5,-228 42.5,-228 42.5,-222 48.5,-216 54.5,-216"/>
<text text-anchor="middle" x="150.76" y="-256.9" font-family="Helvetica,sans-Serif" font-weight="bold" font-size="9.00">solution&#45;class&#45;sunday</text>
</g>
<g id="clust6" class="cluster">
<title>cluster_src/intersection</title>
<path fill="#ffffff" stroke="black" stroke-width="2" d="M28,-112C28,-112 273.53,-112 273.53,-112 279.53,-112 285.53,-118 285.53,-124 285.53,-124 285.53,-188 285.53,-188 285.53,-194 279.53,-200 273.53,-200 273.53,-200 28,-200 28,-200 22,-200 16,-194 16,-188 16,-188 16,-124 16,-124 16,-118 22,-112 28,-112"/>
<text text-anchor="middle" x="150.76" y="-187.9" font-family="Helvetica,sans-Serif" font-weight="bold" font-size="9.00">intersection</text>
</g>
<g id="clust7" class="cluster">
<title>cluster_src/intersection/for&#45;loops&#45;rayane</title>
<path fill="#ffffff" stroke="black" stroke-width="2" d="M36,-120C36,-120 265.53,-120 265.53,-120 271.53,-120 277.53,-126 277.53,-132 277.53,-132 277.53,-161 277.53,-161 277.53,-167 271.53,-173 265.53,-173 265.53,-173 36,-173 36,-173 30,-173 24,-167 24,-161 24,-161 24,-132 24,-132 24,-126 30,-120 36,-120"/>
<text text-anchor="middle" x="150.76" y="-160.9" font-family="Helvetica,sans-Serif" font-weight="bold" font-size="9.00">for&#45;loops&#45;rayane</text>
</g>
<g id="clust8" class="cluster">
<title>cluster_src/sort&#45;numbers</title>
<path fill="#ffffff" stroke="black" stroke-width="2" d="M39.76,-16C39.76,-16 261.77,-16 261.77,-16 267.77,-16 273.77,-22 273.77,-28 273.77,-28 273.77,-92 273.77,-92 273.77,-98 267.77,-104 261.77,-104 261.77,-104 39.76,-104 39.76,-104 33.76,-104 27.76,-98 27.76,-92 27.76,-92 27.76,-28 27.76,-28 27.76,-22 33.76,-16 39.76,-16"/>
<text text-anchor="middle" x="150.76" y="-91.9" font-family="Helvetica,sans-Serif" font-weight="bold" font-size="9.00">sort&#45;numbers</text>
</g>
<g id="clust9" class="cluster">
<title>cluster_src/sort&#45;numbers/example&#45;built&#45;in&#45;sort</title>
<path fill="#ffffff" stroke="black" stroke-width="2" d="M47.76,-24C47.76,-24 253.77,-24 253.77,-24 259.77,-24 265.77,-30 265.77,-36 265.77,-36 265.77,-65 265.77,-65 265.77,-71 259.77,-77 253.77,-77 253.77,-77 47.76,-77 47.76,-77 41.76,-77 35.76,-71 35.76,-65 35.76,-65 35.76,-36 35.76,-36 35.76,-30 41.76,-24 47.76,-24"/>
<text text-anchor="middle" x="150.76" y="-64.9" font-family="Helvetica,sans-Serif" font-weight="bold" font-size="9.00">example&#45;built&#45;in&#45;sort</text>
</g>
<!-- src/deep&#45;flat/deepflat&#45;daniel/deepflat&#45;daniel.js -->
<g id="node1" class="node">
<title>src/deep&#45;flat/deepflat&#45;daniel/deepflat&#45;daniel.js</title>
<g id="a_node1"><a xlink:href="../src/deep-flat/deepflat-daniel/deepflat-daniel.js" xlink:title="deepflat&#45;daniel.js">
<path fill="#ffffcc" stroke="black" d="M254.59,-338.3C254.59,-338.3 182.96,-338.3 182.96,-338.3 179.86,-338.3 176.76,-335.2 176.76,-332.1 176.76,-332.1 176.76,-325.9 176.76,-325.9 176.76,-322.8 179.86,-319.7 182.96,-319.7 182.96,-319.7 254.59,-319.7 254.59,-319.7 257.69,-319.7 260.79,-322.8 260.79,-325.9 260.79,-325.9 260.79,-332.1 260.79,-332.1 260.79,-335.2 257.69,-338.3 254.59,-338.3"/>
<text text-anchor="middle" x="218.77" y="-326.3" font-family="Helvetica,sans-Serif" font-size="9.00">deepflat&#45;daniel.js</text>
</a>
</g>
</g>
<!-- src/deep&#45;flat/deepflat&#45;daniel/deepflat&#45;daniel.spec.js -->
<g id="node2" class="node">
<title>src/deep&#45;flat/deepflat&#45;daniel/deepflat&#45;daniel.spec.js</title>
<g id="a_node2"><a xlink:href="../src/deep-flat/deepflat-daniel/deepflat-daniel.spec.js" xlink:title="deepflat&#45;daniel.spec.js">
<path fill="#ffffcc" stroke="black" d="M139.83,-338.3C139.83,-338.3 47.19,-338.3 47.19,-338.3 44.09,-338.3 40.98,-335.2 40.98,-332.1 40.98,-332.1 40.98,-325.9 40.98,-325.9 40.98,-322.8 44.09,-319.7 47.19,-319.7 47.19,-319.7 139.83,-319.7 139.83,-319.7 142.93,-319.7 146.03,-322.8 146.03,-325.9 146.03,-325.9 146.03,-332.1 146.03,-332.1 146.03,-335.2 142.93,-338.3 139.83,-338.3"/>
<text text-anchor="middle" x="93.51" y="-326.3" font-family="Helvetica,sans-Serif" font-size="9.00">deepflat&#45;daniel.spec.js</text>
</a>
</g>
</g>
<!-- src/deep&#45;flat/deepflat&#45;daniel/deepflat&#45;daniel.spec.js&#45;&gt;src/deep&#45;flat/deepflat&#45;daniel/deepflat&#45;daniel.js -->
<g id="edge1" class="edge">
<title>src/deep&#45;flat/deepflat&#45;daniel/deepflat&#45;daniel.spec.js&#45;&gt;src/deep&#45;flat/deepflat&#45;daniel/deepflat&#45;daniel.js</title>
<path fill="none" stroke="#000000" stroke-width="2" stroke-opacity="0.200000" d="M146.07,-329C154.17,-329 162.5,-329 170.49,-329"/>
<polygon fill="#000000" fill-opacity="0.200000" stroke="#000000" stroke-width="2" stroke-opacity="0.200000" points="170.53,-331.1 176.53,-329 170.53,-326.9 170.53,-331.1"/>
</g>
<!-- src/difference/solution&#45;class&#45;sunday/difference.js -->
<g id="node3" class="node">
<title>src/difference/solution&#45;class&#45;sunday/difference.js</title>
<g id="a_node3"><a xlink:href="../src/difference/solution-class-sunday/difference.js" xlink:title="difference.js">
<path fill="#ffffcc" stroke="black" d="M244.58,-242.3C244.58,-242.3 192.96,-242.3 192.96,-242.3 189.86,-242.3 186.76,-239.2 186.76,-236.1 186.76,-236.1 186.76,-229.9 186.76,-229.9 186.76,-226.8 189.86,-223.7 192.96,-223.7 192.96,-223.7 244.58,-223.7 244.58,-223.7 247.68,-223.7 250.78,-226.8 250.78,-229.9 250.78,-229.9 250.78,-236.1 250.78,-236.1 250.78,-239.2 247.68,-242.3 244.58,-242.3"/>
<text text-anchor="middle" x="218.77" y="-230.3" font-family="Helvetica,sans-Serif" font-size="9.00">difference.js</text>
</a>
</g>
</g>
<!-- src/difference/solution&#45;class&#45;sunday/difference.spec.js -->
<g id="node4" class="node">
<title>src/difference/solution&#45;class&#45;sunday/difference.spec.js</title>
<g id="a_node4"><a xlink:href="../src/difference/solution-class-sunday/difference.spec.js" xlink:title="difference.spec.js">
<path fill="#ffffcc" stroke="black" d="M130.32,-242.3C130.32,-242.3 56.69,-242.3 56.69,-242.3 53.59,-242.3 50.49,-239.2 50.49,-236.1 50.49,-236.1 50.49,-229.9 50.49,-229.9 50.49,-226.8 53.59,-223.7 56.69,-223.7 56.69,-223.7 130.32,-223.7 130.32,-223.7 133.43,-223.7 136.53,-226.8 136.53,-229.9 136.53,-229.9 136.53,-236.1 136.53,-236.1 136.53,-239.2 133.43,-242.3 130.32,-242.3"/>
<text text-anchor="middle" x="93.51" y="-230.3" font-family="Helvetica,sans-Serif" font-size="9.00">difference.spec.js</text>
</a>
</g>
</g>
<!-- src/difference/solution&#45;class&#45;sunday/difference.spec.js&#45;&gt;src/difference/solution&#45;class&#45;sunday/difference.js -->
<g id="edge2" class="edge">
<title>src/difference/solution&#45;class&#45;sunday/difference.spec.js&#45;&gt;src/difference/solution&#45;class&#45;sunday/difference.js</title>
<path fill="none" stroke="#000000" stroke-width="2" stroke-opacity="0.200000" d="M136.58,-233C150.74,-233 166.42,-233 180.21,-233"/>
<polygon fill="#000000" fill-opacity="0.200000" stroke="#000000" stroke-width="2" stroke-opacity="0.200000" points="180.39,-235.1 186.39,-233 180.39,-230.9 180.39,-235.1"/>
</g>
<!-- src/intersection/for&#45;loops&#45;rayane/intersection&#45;rayane.js -->
<g id="node5" class="node">
<title>src/intersection/for&#45;loops&#45;rayane/intersection&#45;rayane.js</title>
<g id="a_node5"><a xlink:href="../src/intersection/for-loops-rayane/intersection-rayane.js" xlink:title="intersection&#45;rayane.js">
<path fill="#ffffcc" stroke="black" d="M263.08,-146.3C263.08,-146.3 174.46,-146.3 174.46,-146.3 171.36,-146.3 168.26,-143.2 168.26,-140.1 168.26,-140.1 168.26,-133.9 168.26,-133.9 168.26,-130.8 171.36,-127.7 174.46,-127.7 174.46,-127.7 263.08,-127.7 263.08,-127.7 266.19,-127.7 269.29,-130.8 269.29,-133.9 269.29,-133.9 269.29,-140.1 269.29,-140.1 269.29,-143.2 266.19,-146.3 263.08,-146.3"/>
<text text-anchor="middle" x="218.77" y="-134.3" font-family="Helvetica,sans-Serif" font-size="9.00">intersection&#45;rayane.js</text>
</a>
</g>
</g>
<!-- src/intersection/for&#45;loops&#45;rayane/intersection&#45;rayane.spec.js -->
<g id="node6" class="node">
<title>src/intersection/for&#45;loops&#45;rayane/intersection&#45;rayane.spec.js</title>
<g id="a_node6"><a xlink:href="../src/intersection/for-loops-rayane/intersection-rayane.spec.js" xlink:title="intersection&#45;rayane.spec.js">
<path fill="#ffffcc" stroke="black" d="M148.83,-146.3C148.83,-146.3 38.19,-146.3 38.19,-146.3 35.09,-146.3 31.99,-143.2 31.99,-140.1 31.99,-140.1 31.99,-133.9 31.99,-133.9 31.99,-130.8 35.09,-127.7 38.19,-127.7 38.19,-127.7 148.83,-127.7 148.83,-127.7 151.93,-127.7 155.03,-130.8 155.03,-133.9 155.03,-133.9 155.03,-140.1 155.03,-140.1 155.03,-143.2 151.93,-146.3 148.83,-146.3"/>
<text text-anchor="middle" x="93.51" y="-134.3" font-family="Helvetica,sans-Serif" font-size="9.00">intersection&#45;rayane.spec.js</text>
</a>
</g>
</g>
<!-- src/intersection/for&#45;loops&#45;rayane/intersection&#45;rayane.spec.js&#45;&gt;src/intersection/for&#45;loops&#45;rayane/intersection&#45;rayane.js -->
<g id="edge3" class="edge">
<title>src/intersection/for&#45;loops&#45;rayane/intersection&#45;rayane.spec.js&#45;&gt;src/intersection/for&#45;loops&#45;rayane/intersection&#45;rayane.js</title>
<path fill="none" stroke="#000000" stroke-width="2" stroke-opacity="0.200000" d="M155.06,-137C157.39,-137 159.72,-137 162.04,-137"/>
<polygon fill="#000000" fill-opacity="0.200000" stroke="#000000" stroke-width="2" stroke-opacity="0.200000" points="162.14,-139.1 168.14,-137 162.14,-134.9 162.14,-139.1"/>
</g>
<!-- src/sort&#45;numbers/example&#45;built&#45;in&#45;sort/sort&#45;numbers.js -->
<g id="node7" class="node">
<title>src/sort&#45;numbers/example&#45;built&#45;in&#45;sort/sort&#45;numbers.js</title>
<g id="a_node7"><a xlink:href="../src/sort-numbers/example-built-in-sort/sort-numbers.js" xlink:title="sort&#45;numbers.js">
<path fill="#ffffcc" stroke="black" d="M251.57,-50.3C251.57,-50.3 185.98,-50.3 185.98,-50.3 182.87,-50.3 179.77,-47.2 179.77,-44.1 179.77,-44.1 179.77,-37.9 179.77,-37.9 179.77,-34.8 182.87,-31.7 185.98,-31.7 185.98,-31.7 251.57,-31.7 251.57,-31.7 254.67,-31.7 257.77,-34.8 257.77,-37.9 257.77,-37.9 257.77,-44.1 257.77,-44.1 257.77,-47.2 254.67,-50.3 251.57,-50.3"/>
<text text-anchor="middle" x="218.77" y="-38.3" font-family="Helvetica,sans-Serif" font-size="9.00">sort&#45;numbers.js</text>
</a>
</g>
</g>
<!-- src/sort&#45;numbers/example&#45;built&#45;in&#45;sort/sort&#45;numbers.spec.js -->
<g id="node8" class="node">
<title>src/sort&#45;numbers/example&#45;built&#45;in&#45;sort/sort&#45;numbers.spec.js</title>
<g id="a_node8"><a xlink:href="../src/sort-numbers/example-built-in-sort/sort-numbers.spec.js" xlink:title="sort&#45;numbers.spec.js">
<path fill="#ffffcc" stroke="black" d="M136.82,-50.3C136.82,-50.3 50.2,-50.3 50.2,-50.3 47.1,-50.3 44,-47.2 44,-44.1 44,-44.1 44,-37.9 44,-37.9 44,-34.8 47.1,-31.7 50.2,-31.7 50.2,-31.7 136.82,-31.7 136.82,-31.7 139.92,-31.7 143.02,-34.8 143.02,-37.9 143.02,-37.9 143.02,-44.1 143.02,-44.1 143.02,-47.2 139.92,-50.3 136.82,-50.3"/>
<text text-anchor="middle" x="93.51" y="-38.3" font-family="Helvetica,sans-Serif" font-size="9.00">sort&#45;numbers.spec.js</text>
</a>
</g>
</g>
<!-- src/sort&#45;numbers/example&#45;built&#45;in&#45;sort/sort&#45;numbers.spec.js&#45;&gt;src/sort&#45;numbers/example&#45;built&#45;in&#45;sort/sort&#45;numbers.js -->
<g id="edge4" class="edge">
<title>src/sort&#45;numbers/example&#45;built&#45;in&#45;sort/sort&#45;numbers.spec.js&#45;&gt;src/sort&#45;numbers/example&#45;built&#45;in&#45;sort/sort&#45;numbers.js</title>
<path fill="none" stroke="#000000" stroke-width="2" stroke-opacity="0.200000" d="M143.23,-41C153.26,-41 163.77,-41 173.62,-41"/>
<polygon fill="#000000" fill-opacity="0.200000" stroke="#000000" stroke-width="2" stroke-opacity="0.200000" points="173.67,-43.1 179.67,-41 173.67,-38.9 173.67,-43.1"/>
</g>
</g>
</svg>
